<mxfile host="app.diagrams.net" modified="2022-01-23T00:53:39.778Z" agent="5.0 (Macintosh; Intel Mac OS X 10_15_7) AppleWebKit/605.1.15 (KHTML, like Gecko) Version/15.2 Safari/605.1.15" etag="p9HKZz6cRLiAK3YINz4M" version="16.2.7" type="github">
  <diagram id="r22wdjnP7teoYweyjm_m" name="Page-1">
    <mxGraphModel dx="852" dy="535" grid="1" gridSize="10" guides="1" tooltips="1" connect="1" arrows="1" fold="1" page="1" pageScale="1" pageWidth="827" pageHeight="1169" math="0" shadow="0">
      <root>
        <mxCell id="0" />
        <mxCell id="1" parent="0" />
        <mxCell id="_lTkWa1O069LMO8PGt2S-1" value="index.js" style="rounded=0;whiteSpace=wrap;html=1;fontFamily=Comic Sans MS;fontSize=23;sketch=1;" vertex="1" parent="1">
          <mxGeometry x="170" y="100" width="456" height="60" as="geometry" />
        </mxCell>
        <mxCell id="_lTkWa1O069LMO8PGt2S-2" value="Block" style="rounded=0;whiteSpace=wrap;html=1;fontFamily=Comic Sans MS;fontSize=23;sketch=1;" vertex="1" parent="1">
          <mxGeometry x="170" y="240" width="140" height="60" as="geometry" />
        </mxCell>
        <mxCell id="_lTkWa1O069LMO8PGt2S-3" value="Chain" style="rounded=0;whiteSpace=wrap;html=1;fontFamily=Comic Sans MS;fontSize=23;sketch=1;" vertex="1" parent="1">
          <mxGeometry x="328" y="240" width="140" height="60" as="geometry" />
        </mxCell>
        <mxCell id="_lTkWa1O069LMO8PGt2S-4" value="P2P" style="rounded=0;whiteSpace=wrap;html=1;fontFamily=Comic Sans MS;fontSize=23;sketch=1;" vertex="1" parent="1">
          <mxGeometry x="486" y="240" width="140" height="60" as="geometry" />
        </mxCell>
        <mxCell id="_lTkWa1O069LMO8PGt2S-5" value="Common" style="rounded=0;whiteSpace=wrap;html=1;fontFamily=Comic Sans MS;fontSize=23;sketch=1;" vertex="1" parent="1">
          <mxGeometry x="170" y="360" width="456" height="60" as="geometry" />
        </mxCell>
        <mxCell id="_lTkWa1O069LMO8PGt2S-6" value="CryptoJs" style="rounded=1;whiteSpace=wrap;html=1;fontFamily=Comic Sans MS;fontSize=23;sketch=1;fillColor=#f8cecc;strokeColor=#b85450;" vertex="1" parent="1">
          <mxGeometry x="170" y="440" width="140" height="60" as="geometry" />
        </mxCell>
        <mxCell id="_lTkWa1O069LMO8PGt2S-7" value="X" style="rounded=1;whiteSpace=wrap;html=1;fontFamily=Comic Sans MS;fontSize=23;sketch=1;fillColor=#f8cecc;strokeColor=#b85450;" vertex="1" parent="1">
          <mxGeometry x="328" y="440" width="140" height="60" as="geometry" />
        </mxCell>
        <mxCell id="_lTkWa1O069LMO8PGt2S-8" value="Y" style="rounded=1;whiteSpace=wrap;html=1;fontFamily=Comic Sans MS;fontSize=23;sketch=1;shadow=0;glass=0;fillColor=#f8cecc;strokeColor=#b85450;" vertex="1" parent="1">
          <mxGeometry x="486" y="440" width="140" height="60" as="geometry" />
        </mxCell>
        <mxCell id="_lTkWa1O069LMO8PGt2S-9" value="" style="shape=flexArrow;endArrow=classic;html=1;sketch=1;fontFamily=Comic Sans MS;fontSize=23;curved=1;" edge="1" parent="1">
          <mxGeometry width="50" height="50" relative="1" as="geometry">
            <mxPoint x="400" y="170" as="sourcePoint" />
            <mxPoint x="400" y="230" as="targetPoint" />
          </mxGeometry>
        </mxCell>
        <mxCell id="_lTkWa1O069LMO8PGt2S-10" value="" style="shape=flexArrow;endArrow=classic;html=1;sketch=1;fontFamily=Comic Sans MS;fontSize=23;curved=1;" edge="1" parent="1">
          <mxGeometry width="50" height="50" relative="1" as="geometry">
            <mxPoint x="239.5" y="310" as="sourcePoint" />
            <mxPoint x="240" y="350" as="targetPoint" />
          </mxGeometry>
        </mxCell>
        <mxCell id="_lTkWa1O069LMO8PGt2S-11" value="" style="shape=flexArrow;endArrow=classic;html=1;sketch=1;fontFamily=Comic Sans MS;fontSize=23;curved=1;" edge="1" parent="1">
          <mxGeometry width="50" height="50" relative="1" as="geometry">
            <mxPoint x="390" y="310" as="sourcePoint" />
            <mxPoint x="390.5" y="350" as="targetPoint" />
          </mxGeometry>
        </mxCell>
        <mxCell id="_lTkWa1O069LMO8PGt2S-12" value="" style="shape=flexArrow;endArrow=classic;html=1;sketch=1;fontFamily=Comic Sans MS;fontSize=23;curved=1;" edge="1" parent="1">
          <mxGeometry width="50" height="50" relative="1" as="geometry">
            <mxPoint x="555.5" y="310" as="sourcePoint" />
            <mxPoint x="556" y="350" as="targetPoint" />
          </mxGeometry>
        </mxCell>
      </root>
    </mxGraphModel>
  </diagram>
</mxfile>
